<mxfile host="app.diagrams.net" agent="Mozilla/5.0 (Windows NT 10.0; Win64; x64) AppleWebKit/537.36 (KHTML, like Gecko) Chrome/136.0.0.0 Safari/537.36 Edg/136.0.0.0" version="27.0.9">
  <diagram id="Kxt11T6_Y5YG1n6FpgPZ" name="第 1 页">
    <mxGraphModel dx="748" dy="505" grid="1" gridSize="10" guides="1" tooltips="1" connect="1" arrows="1" fold="1" page="1" pageScale="1" pageWidth="827" pageHeight="1169" math="0" shadow="0">
      <root>
        <mxCell id="0" />
        <mxCell id="1" parent="0" />
        <mxCell id="xsjcqdi1_I2oOMjYGqOI-104" value="" style="rounded=1;whiteSpace=wrap;html=1;rotation=90;dashed=1;" vertex="1" parent="1">
          <mxGeometry x="645" y="530" width="110" height="30" as="geometry" />
        </mxCell>
        <mxCell id="xsjcqdi1_I2oOMjYGqOI-3" value="" style="shape=image;verticalLabelPosition=bottom;verticalAlign=top;imageAspect=0;aspect=fixed;image=data:image/png,iVBORw0KGgoAAAANSUhEUgAAAMgAAADICAIAAAAiOjnJAAAUuUlEQVR4nOyde3wUVZbHq9OdDk2n0/gExQXDACJKeOgawKUdXz0fYYI7ivJYGR8Js46yEhV0V8I6owHXAXeCG1wdwZEJiwbJrAaJnw2rOyTKkGFMpzvRPE3SMSRNVEy/0uln7aeptrq7UlVdlfStrqo+30/+SKeqK7e7fnXuveeec65qtFuPAUCyyUh1AwB5AsICkADCApAAwgKQAMICkADCApAAwgKQAMICkADCApAAwgKQAMICkADCApAAwgKQAMICkADCApAAwgKQAMICkADCApAAwgKQAMICkADCApAAwgKQAMICkADCApAAwgKQAMICkADCApAAwgKQAMICkADCApAAwgKQAMICkADCApAAwgKQAMICkADCApAAwgKQAMICkADCApAAwgKQAMICkADCApAAwgKQAMICkADCApAAwgKQAMICOIGPKnidz1VYww58+Dt8XE0C5EDjXwO8zucqLMuXwfJD3nE1CZADlf/r53U+V2GZzSFrf2hcTQLkQE09GmFZugLmL4PjahIgB7p6QrwEwFVYLe1BSytYrDTl8zPhW9/WiUBYppbwpRubwWilI6eaw/3gGUuyhVV3OjIjGOiHiWE6Yu3GiQkc97dwEhY5bO/sB4uVjli+ClsW85c8xkKchHW6MWKxOrtgmJWO1DWEDYrdiXd0c7UsnITV2RPRk6kVLFbaYf4ietPbOFsWbmOshsilO3tAWGmHJcaaWDhblsTCGuiLDthdbmzYAeP39MJ6Nmqlmj5PnsXqHIgTKa+pASADSJ8AhmHNPVxXDDkI66s4kdY18FuMBKROY0vUlFjP4s5hTu9KLCzTF3EmChZ20gprf8jljvuLqY2TZUksrI74AXtvB+/GAdKlt4s6pObYZSUW1uBQ3KWbrdAVphH1ZmpQQ6+V0/g9gbCcLryrh3qh2NEcIG8am6n3usGcDItlaqEZUZlhKTptaGmldoWdPZz8TQmERTtUt3SAsNKCYQfeN0jT8XEJckkgLFpPa28v+EjTAiaf5cDXiQWQQFi04cj1n8MYKy0w0w2Ewr3h2QlbLHKVkMLYMR0gP84w3GUuQS5swjI3Mb6/pQ3iZ+QPUywDlyAXNmFZuhjNkqUNxu/yhynLgUuQC5uwepnzvWApWvawTP1cbmz4+wTjdzZh1TM772HFUPYMDrGNdiztCQRALyzneeyeR9xMI/cLUarYsgJXWxfIS55UVvuKn/ewnPDz4pH9B9ky4+mFdX4kVPOnBPM+0xfBc9+AQ0ueeB3Y1wNsN9c2hJ/+nM2sKEa79bQHqmv97HGoBSsyFy5Rcm4qIDEee8rTNcgoAMNS1eaHs6bkMJagUTEdsLQGS/ey2TpDPuN7ARlg6grSrhQTGJaqWFQF9bEAVICwACSAsAAkgLAAJICwACSAsAAkgLDSBdzFr+zxBBFIWPvf9gnzjwAmmk4Kuv4mkLDqGgO4V9AnBqCwq9qDC7gCJ5CwzK3BehO/srtAcmnrCrKEqyQdgYTV/lVIHkUfJLqLwrAD7+zBhbwFQgiLCN6SQZn44e/xiqOStLsWwW+BEMIiPpUMYgPrzgSsQ5L8FMSX39shnLkVQlhE5S4ZlIm39ockGpNNREDVC5hbJYSwyFoPUk8aWzhfOe0SSXr+Wn6IJBYs6FeQMdbnEQvcYpHkyJektw2zfSdJu0vs/4BhWFenQLcAubCs/SF7IPKpLN3Stlg7D4yYm0LcS1KLhI6YJFDBKvULISzyd4kOUEhmXKbE1LhOKzFPb2xG/NiiVIhALqxY30kjc2q1JLhiqiIYwvSsIbki5Kvu6NfeymejpYmAXlgxVdpcXly6Tofq44Ej/+N3ubFX3pDYhqDtMVZKsBR25MLq/TrOSknUTWrtD216LlLkdeerXo7lEkVCbNljwSr1UzNtwt/gthEuCtj6omdKjkKfo3jvDS3TOcMOvC8+Pc3SGlxtzJxYm1NARZXP7oy+PPS+r2TLpFQ2iA+UnGbLl0HDUsYMK+N6F/ELS4pO+As56iP6os0PZ9HeUBphsSRAx7WPg8Nz7Gg93JotXC4vaiRUOnrYgdviyxPXNQRYhMXx7lvP4tYLcwLDUnpLgbYrbGyh+hc6hJqVJBG3HRs8F9dsHxai/EW0jH22hXGXUJXLd8qj17Ed/ewM9TPYhvDBc6ErporXf93bhdc3+Vvag6aWYK8V77PRCOjIR/4jH/kxDJs2JWPuNYq8H6lmzlIsnK9ksQSpYmxEQ0Mjm7BmTldYz/IYhM24iP5WUr+IhfOVK/KV9dzsIYZhe3ZoWI7SDtQGh/ArpnK8vEDgAexIje/ocX/d6UDsWCohtuGQrSHafWRrsVuXqwpuz7xluWrmVaJ4eHrHuNrZdbN7h+b+R0c4Xlyvw1b/Pf2ImebDFxdlcbzu4vnKjWvUTEf/8I6fdhxWtl9E0/XqWn/Rkx7NXPuDxZ5jJ/ipaiwuN3bsROAX/+y5xuC8c72rujb1MTYWum2VWCr1rzZmGvK5luTYs0PDlGhPXxTkniJ3zSeJl1/eekWz4WeMwrp6kcvmoLF8mklYw4fZc2elsqDIwFn8raPeg+/52GuqTJxsLba2IPN+Y9YtP07B51220mVicFyd+kC7ZAF9x93RHcy7w5Xw4oZ8Ze072UxH6c31kgWcvoV5s9lOW3Mv/dH//DdNClXV24mv2eiZtcJRuteLWlWEDTvwrv8nj7iWrXYJv6PHL39O/9gb8pWXMIyNMAzjeHfYB5QIxwFMRpKym5Rg4F7Fszs9837i+PCzFKQMmVqCxg3uomKPkC7iq6+mv7+GpciHgKIYYApA3enAvDvsew+kOAvtULXvplXO0rLR1DZDAOQvLKcL3/qCx7jBzWsWjQ67Eyt91Vu0eVTemyDLXFgd3UHjfSPl4kuXPVTjXWR0VlaLrmHJQs7Cqjjqy7vDZWoXaXShbQh/sNizadsILg0fPj9kK6ytL3o2PcNW91ckVFT57/1FiqYzKJGnsDZtGyn/vWR6mZpPAk//iwSeAV7IUFiPPeepqEq9y5sX+yp99xS5nS75DOflJqxN20beelcytiqWmk8Ct691yWaqKCthVRz1Sc5WxWJpDW16musCsMiRj7DqTgckMVpn59jHgbI3RbRIP25kIqxhB37fP8pkblX66qhEMwNikYOwRjz4XQ+4JhjxIh5cbmzdY5IfyMtBWL875CNTyOWBqSX0693SXk+UvLCGHfj+CklOA9kpr/AJH2aTRJAIa3gIrzsdYBoodHYH604HEm7RyZHyt7xd0h+R0LL1xfHPRb63hW8BU3qwtT/EcjQpIBFW+Tte4wY308x/7wGfcYO7/A9JmPsM2/H/+L0c5lC0WFpDxz8ep/dkX2X4Fmwrpe9PK6r84aMTEG5CRJdVwoXYrFrZjNlpeXy7Z++FFAGmvFDRgkRYM6cnNoR5M8cfncw9q1bq2IZw2xBbXigTedcm/npnXIYwQBxJV7hxjXpOLtuVDflKprQhCsb1rkmz7JQf4waRuqyylXHR2DmqpNWlKd3rHfs9sLjuuCTb7HiGazrWOEA1K9xSyNbo3azZiLTMyc1or9O11+nyrg23efFslc2UQ77ceG+mrSn6Mu/ayMkrFmYSL1s/0tuach65J9Kq3/1aO9qtf7ss0owH7sr65oyefLt+sqLq9fAJb/5GQ2TkFtypaq/T2ZpySp6IXOE3z2hsTTmnPsgmTtDrsNrD2h6TjjxhS6F6qCOn9rCWOGHlj1VEC3+6TE00qaEqfMGN92aSb/d06jc/pCZf2ppyVt6mIl42vJ9ta8q56+a4p9HOurD45u7JLEdLnshCGvZOn/5VuneUfd9eglMfZDPl8zQ2B5ffzZhCxLQR9ViM611Er0emmg2eC+Uuc5L/urE5UPDQSNtJnS47bB4G+vHrjI6+v+QQL50ufN5y17H/0hCpTiMefP6tzuJCdfGmSEmPZ58frfnUZzmuV0zCie37c2+xlzyRRZ6w/7D35de8nZ/mkE26v3DksqnYvl2Tf/ikgeV3u0+9r12SFxlX3FPkdrlxMjWq7nTAuMHdVJtNJDU5XfiCO5x/fHMymX219LaRJ4tVa1dHMmqWrXYVF6rX3h1++e350FU3Og+WaYijlG+VPQELw7BJs+xMh2oPa1nSbFjeSFKyJYulMopkBu9kqhmRnk8KeskC1YzpGYSMMAy78irFvNlK8qUuWzHjagV5CydrFHNzM2Lz6VbdpQqcVxKqCp9/MbbkemXsCXNnKY2GODux7G+VNyyKPk7EyaSqxibPEfePbL8um9qGG5Yq7pw1GcMiXqsl1yvJEgSXXpxhyFeSmuOYlicGJO8gnTj6KfxGQjp98iv66TOjitFKRjxsSMZile332oZCuF+hyMSJDoU0SxMFF1fpR/eY+e6wA6846jt2wu9M3EGJBckI68ixOFehcYP7o0Na9h36ZUP+KqdIcte4I9Wu0NQSvO9ByUdfJeTb86GOnpDkVCVhYWEYVm/2VxyV4fJzLBVVfko9PqkgdmGxx4BXn0hCIDI+YR++fsKO0D4v/RMi5A6DyUXsYyz2SqfHTgQIjwvF78L+cqzj/qVKjP2EA4kSNMY6fiiOQPYmUa6f8N+JH1FbrK2/SjCKmna5onCdevH1spigj6FwnfqSi9hsYUdP6PHnRDrQFLWw9vwqwcrP3NyMfbt4rw5JhX27NDNYl/PF/PFFLSxAuoCwACSAsAAkgLAAJEhMWET0UtpChGdJAokJiz14TfasvF0yz5XEhAVIBRCWhNEqxRvcIcY+u7RsdOzWQrSYm0PG9a7OniARRb5nh2brCx5Lm4TzVyv3ah95yuMOhoiwbOKjMXGqOUBuL7j4euXL20XkLBWjsOoaAhyzu+wjOHnmlByFYalqCoLwTiFZbVDPnhwyOz1ctg60O6PnOEWWuARdIYCE1Fisp/7Jr1fS/2tFVoilpsA1Kxwo2yV2yn7LGCbU2RN84ekQHopGWtsDqczpTY2wXjs+zoKIUoylTCJd3zIOPV1ubNd/i6jcAHSFABJAWAASQFjiAg8qukbkUJgJhMWJLYXqnj/rRrv13zTlPLKOcVPZiYN7MggnltQBYSXmvjvVL2/XEGnvuhzFa7s0BXeimvQoJgd/pEEoXMEAYSVm3f1UGZX8UkQ+bnFCIyynC+dYZ7yjOy2qn11xOfVbWrgI1QOpyMCyVSnODent4uTTsfaHWJLzqF/QsAPPXebguHHIQ096nt4u7arRY8m7NqPAoM7W8nhLgUGdsMqZVHh1t3eekZMXuqLKP22R4+Sf6F1rVGF1W4O8NgM/WC3oFMbTNgXp9Q+Waf5yXPfe25r3D3BSlmYSZqkJn1/7TnbVm8hjxcp3Iu+C/72K3w2tN9MLizp6WLJAtaVQ/fYRH5eisXNyM3Y+Gym9RSlK3tGNZGqjUCP0vOddk0FWovq7m1SGfGXCZeBbl6vmzos8nKtuz1yxWFVvkkbusrk5RFbkulA0ULHwurDR/b/Xc9Zud7LnCf/wFuyBlertj9LXXqOZ3by8XWNqCXKJL9hSFC3lK9q6oNyZEl8o6+arNXUNjEUJCSjDr7nXZNSb0DQu2Wx7iZrpSpRZzF2E7dmh4XI3Z16mfOUlRgtKPwjlGLUyeE5oj8tNq4RbDlOIb9RElOZGDe7nFHpkYZ260QuLY2ii8IVQuJhoGdPZI8THr2/kWmrFeZ7xEI2wGpuD7iAnxQwOpfVtliu4l2uwpKmDcUA5IX/MoDRLNwHs1Ju4WiwefqzwhO4rrnbI6QZhpTWWVsZhFs2s0OXhKpcuQbp8wRh24LFOE0tP5PfG5qAr/hHCA5HOYnAw7i0drLkPUsHcmAR7QSOsPisPuSSzenGqsbSGaKfZm0sYa1DVnPTXnJTw9ua02P1cBRB+qLbQH6LpCr/js0O/qUUOzyhAwmv3TZYqmzTCGujjISyOPg9AltT/lVFZNMKyOXh0hdx9Hklh88NyiFUaNwIUBUnWtqt0YTPfJeXKSNjDf9swOSFAURC7k9/I3dxEb4ZonoCuQR6aZRm+pZxsLVZclDXt8oyaE/6a+OiOlbepVt6e+e350J7XvbHRHHNyMwrXq7O1infe9312Ju572PJQ1pw5Gbah0CtveD0xsUIrblSt/Vkmsd4S6xnXTML+9XGN7mLM1Bw48G6cXV88X1n4D2qXGy8r99sc4hqk8o2xs4+GaM0TVVgcQ/xSRXUtj573t89rNq4Jd51F69Xk9nTEbmx/3B+Jipk+NWPTM9FJ34cHtcQufmsLMmff7CBDPEqeyCopjizj4zi289XImt20yxW1B7MVmvBTvmZV+C2kTHeXaIo2XOi416t9/hEyxG3mdMVHhyObtdy6TJVfkGCdO5bBr5HfHb7LdOamkGEpzd+pWuMrLIG30L3/UR6ZroSqCGL35ov9Pfacn+ZnkntD6rIVhhvp37Iqpj8y5KsIVRHFI1bcED0UuwXcxnuj/6XAmEluAbTwOmXeLB5r3TtfR74I3ctTu3Yv/fk0EaQTaJW0cWBx39GCv0k8UdBp4ybFV16ZeI5M2VhqymV8moievgF+Aujtpj+f2hWyOOmZqKz2zckVX4jJxAmkUaaJVqlobA6OjPA2K31D9IKhCmscFuvBYpFujgBwxx3EWbZaZqG3k/7v1IfSkiQ3BpAm9J2nF0waWXsAEbSOT6qwBJ7liRpRO15EROcAjWbEWCoyWcTujNXYEnWQHv/YP3iOZihJ2UzrZH30+yrb762sjjiivj0fVdynfw7GvqW2Lupme3nf6KUXR57b2FDbyuq4/94o/VV8N20a4mi3nvypPcwnTVNkGPKVo916qSeOekwXLdRJbNmqfKcmVkXED4yxgInidNGY/zhhJWtlG0graAOJ44QVGGdlUCCtcdOlPsQJ6xRz3BYgDLgCxxQSW1Vrp7NYcbNCpgVFSWDtD5XuHRV5dEZCnnnF0+WWWBA9ThfMrCAy9gmmLrRzqQUCABRiVUQQ1xWCqtKZmdOTmb4Q7Qqd32GLr5e2EwgYN7MvzVi3JrN0vPFeA2dDV8ZvuK8Ya8QAYOKAgxRAAggLQAIIC0ACCAtAAggLQML/BwAA//9MH4GJL8qR8wAAAABJRU5ErkJggg==" vertex="1" parent="1">
          <mxGeometry x="95" y="330" width="50" height="50" as="geometry" />
        </mxCell>
        <mxCell id="xsjcqdi1_I2oOMjYGqOI-4" value="" style="shape=image;verticalLabelPosition=bottom;verticalAlign=top;imageAspect=0;aspect=fixed;image=data:image/png,iVBORw0KGgoAAAANSUhEUgAAAMgAAADICAIAAAAiOjnJAAAUuUlEQVR4nOyde3wUVZbHq9OdDk2n0/gExQXDACJKeOgawKUdXz0fYYI7ivJYGR8Js46yEhV0V8I6owHXAXeCG1wdwZEJiwbJrAaJnw2rOyTKkGFMpzvRPE3SMSRNVEy/0uln7aeptrq7UlVdlfStrqo+30/+SKeqK7e7fnXuveeec65qtFuPAUCyyUh1AwB5AsICkADCApAAwgKQAMICkADCApAAwgKQAMICkADCApAAwgKQAMICkADCApAAwgKQAMICkADCApAAwgKQAMICkADCApAAwgKQAMICkADCApAAwgKQAMICkADCApAAwgKQAMICkADCApAAwgKQAMICkADCApAAwgKQAMICkADCApAAwgKQAMICkADCApAAwgKQAMICkADCApAAwgKQAMICkADCApAAwgKQAMICkADCApAAwgKQAMICOIGPKnidz1VYww58+Dt8XE0C5EDjXwO8zucqLMuXwfJD3nE1CZADlf/r53U+V2GZzSFrf2hcTQLkQE09GmFZugLmL4PjahIgB7p6QrwEwFVYLe1BSytYrDTl8zPhW9/WiUBYppbwpRubwWilI6eaw/3gGUuyhVV3OjIjGOiHiWE6Yu3GiQkc97dwEhY5bO/sB4uVjli+ClsW85c8xkKchHW6MWKxOrtgmJWO1DWEDYrdiXd0c7UsnITV2RPRk6kVLFbaYf4ietPbOFsWbmOshsilO3tAWGmHJcaaWDhblsTCGuiLDthdbmzYAeP39MJ6Nmqlmj5PnsXqHIgTKa+pASADSJ8AhmHNPVxXDDkI66s4kdY18FuMBKROY0vUlFjP4s5hTu9KLCzTF3EmChZ20gprf8jljvuLqY2TZUksrI74AXtvB+/GAdKlt4s6pObYZSUW1uBQ3KWbrdAVphH1ZmpQQ6+V0/g9gbCcLryrh3qh2NEcIG8am6n3usGcDItlaqEZUZlhKTptaGmldoWdPZz8TQmERTtUt3SAsNKCYQfeN0jT8XEJckkgLFpPa28v+EjTAiaf5cDXiQWQQFi04cj1n8MYKy0w0w2Ewr3h2QlbLHKVkMLYMR0gP84w3GUuQS5swjI3Mb6/pQ3iZ+QPUywDlyAXNmFZuhjNkqUNxu/yhynLgUuQC5uwepnzvWApWvawTP1cbmz4+wTjdzZh1TM772HFUPYMDrGNdiztCQRALyzneeyeR9xMI/cLUarYsgJXWxfIS55UVvuKn/ewnPDz4pH9B9ky4+mFdX4kVPOnBPM+0xfBc9+AQ0ueeB3Y1wNsN9c2hJ/+nM2sKEa79bQHqmv97HGoBSsyFy5Rcm4qIDEee8rTNcgoAMNS1eaHs6bkMJagUTEdsLQGS/ey2TpDPuN7ARlg6grSrhQTGJaqWFQF9bEAVICwACSAsAAkgLAAJICwACSAsAAkgLDSBdzFr+zxBBFIWPvf9gnzjwAmmk4Kuv4mkLDqGgO4V9AnBqCwq9qDC7gCJ5CwzK3BehO/srtAcmnrCrKEqyQdgYTV/lVIHkUfJLqLwrAD7+zBhbwFQgiLCN6SQZn44e/xiqOStLsWwW+BEMIiPpUMYgPrzgSsQ5L8FMSX39shnLkVQlhE5S4ZlIm39ockGpNNREDVC5hbJYSwyFoPUk8aWzhfOe0SSXr+Wn6IJBYs6FeQMdbnEQvcYpHkyJektw2zfSdJu0vs/4BhWFenQLcAubCs/SF7IPKpLN3Stlg7D4yYm0LcS1KLhI6YJFDBKvULISzyd4kOUEhmXKbE1LhOKzFPb2xG/NiiVIhALqxY30kjc2q1JLhiqiIYwvSsIbki5Kvu6NfeymejpYmAXlgxVdpcXly6Tofq44Ej/+N3ubFX3pDYhqDtMVZKsBR25MLq/TrOSknUTWrtD216LlLkdeerXo7lEkVCbNljwSr1UzNtwt/gthEuCtj6omdKjkKfo3jvDS3TOcMOvC8+Pc3SGlxtzJxYm1NARZXP7oy+PPS+r2TLpFQ2iA+UnGbLl0HDUsYMK+N6F/ELS4pO+As56iP6os0PZ9HeUBphsSRAx7WPg8Nz7Gg93JotXC4vaiRUOnrYgdviyxPXNQRYhMXx7lvP4tYLcwLDUnpLgbYrbGyh+hc6hJqVJBG3HRs8F9dsHxai/EW0jH22hXGXUJXLd8qj17Ed/ewM9TPYhvDBc6ErporXf93bhdc3+Vvag6aWYK8V77PRCOjIR/4jH/kxDJs2JWPuNYq8H6lmzlIsnK9ksQSpYmxEQ0Mjm7BmTldYz/IYhM24iP5WUr+IhfOVK/KV9dzsIYZhe3ZoWI7SDtQGh/ArpnK8vEDgAexIje/ocX/d6UDsWCohtuGQrSHafWRrsVuXqwpuz7xluWrmVaJ4eHrHuNrZdbN7h+b+R0c4Xlyvw1b/Pf2ImebDFxdlcbzu4vnKjWvUTEf/8I6fdhxWtl9E0/XqWn/Rkx7NXPuDxZ5jJ/ipaiwuN3bsROAX/+y5xuC8c72rujb1MTYWum2VWCr1rzZmGvK5luTYs0PDlGhPXxTkniJ3zSeJl1/eekWz4WeMwrp6kcvmoLF8mklYw4fZc2elsqDIwFn8raPeg+/52GuqTJxsLba2IPN+Y9YtP07B51220mVicFyd+kC7ZAF9x93RHcy7w5Xw4oZ8Ze072UxH6c31kgWcvoV5s9lOW3Mv/dH//DdNClXV24mv2eiZtcJRuteLWlWEDTvwrv8nj7iWrXYJv6PHL39O/9gb8pWXMIyNMAzjeHfYB5QIxwFMRpKym5Rg4F7Fszs9837i+PCzFKQMmVqCxg3uomKPkC7iq6+mv7+GpciHgKIYYApA3enAvDvsew+kOAvtULXvplXO0rLR1DZDAOQvLKcL3/qCx7jBzWsWjQ67Eyt91Vu0eVTemyDLXFgd3UHjfSPl4kuXPVTjXWR0VlaLrmHJQs7Cqjjqy7vDZWoXaXShbQh/sNizadsILg0fPj9kK6ytL3o2PcNW91ckVFT57/1FiqYzKJGnsDZtGyn/vWR6mZpPAk//iwSeAV7IUFiPPeepqEq9y5sX+yp99xS5nS75DOflJqxN20beelcytiqWmk8Ct691yWaqKCthVRz1Sc5WxWJpDW16musCsMiRj7DqTgckMVpn59jHgbI3RbRIP25kIqxhB37fP8pkblX66qhEMwNikYOwRjz4XQ+4JhjxIh5cbmzdY5IfyMtBWL875CNTyOWBqSX0693SXk+UvLCGHfj+CklOA9kpr/AJH2aTRJAIa3gIrzsdYBoodHYH604HEm7RyZHyt7xd0h+R0LL1xfHPRb63hW8BU3qwtT/EcjQpIBFW+Tte4wY308x/7wGfcYO7/A9JmPsM2/H/+L0c5lC0WFpDxz8ep/dkX2X4Fmwrpe9PK6r84aMTEG5CRJdVwoXYrFrZjNlpeXy7Z++FFAGmvFDRgkRYM6cnNoR5M8cfncw9q1bq2IZw2xBbXigTedcm/npnXIYwQBxJV7hxjXpOLtuVDflKprQhCsb1rkmz7JQf4waRuqyylXHR2DmqpNWlKd3rHfs9sLjuuCTb7HiGazrWOEA1K9xSyNbo3azZiLTMyc1or9O11+nyrg23efFslc2UQ77ceG+mrSn6Mu/ayMkrFmYSL1s/0tuach65J9Kq3/1aO9qtf7ss0owH7sr65oyefLt+sqLq9fAJb/5GQ2TkFtypaq/T2ZpySp6IXOE3z2hsTTmnPsgmTtDrsNrD2h6TjjxhS6F6qCOn9rCWOGHlj1VEC3+6TE00qaEqfMGN92aSb/d06jc/pCZf2ppyVt6mIl42vJ9ta8q56+a4p9HOurD45u7JLEdLnshCGvZOn/5VuneUfd9eglMfZDPl8zQ2B5ffzZhCxLQR9ViM611Er0emmg2eC+Uuc5L/urE5UPDQSNtJnS47bB4G+vHrjI6+v+QQL50ufN5y17H/0hCpTiMefP6tzuJCdfGmSEmPZ58frfnUZzmuV0zCie37c2+xlzyRRZ6w/7D35de8nZ/mkE26v3DksqnYvl2Tf/ikgeV3u0+9r12SFxlX3FPkdrlxMjWq7nTAuMHdVJtNJDU5XfiCO5x/fHMymX219LaRJ4tVa1dHMmqWrXYVF6rX3h1++e350FU3Og+WaYijlG+VPQELw7BJs+xMh2oPa1nSbFjeSFKyJYulMopkBu9kqhmRnk8KeskC1YzpGYSMMAy78irFvNlK8qUuWzHjagV5CydrFHNzM2Lz6VbdpQqcVxKqCp9/MbbkemXsCXNnKY2GODux7G+VNyyKPk7EyaSqxibPEfePbL8um9qGG5Yq7pw1GcMiXqsl1yvJEgSXXpxhyFeSmuOYlicGJO8gnTj6KfxGQjp98iv66TOjitFKRjxsSMZile332oZCuF+hyMSJDoU0SxMFF1fpR/eY+e6wA6846jt2wu9M3EGJBckI68ixOFehcYP7o0Na9h36ZUP+KqdIcte4I9Wu0NQSvO9ByUdfJeTb86GOnpDkVCVhYWEYVm/2VxyV4fJzLBVVfko9PqkgdmGxx4BXn0hCIDI+YR++fsKO0D4v/RMi5A6DyUXsYyz2SqfHTgQIjwvF78L+cqzj/qVKjP2EA4kSNMY6fiiOQPYmUa6f8N+JH1FbrK2/SjCKmna5onCdevH1spigj6FwnfqSi9hsYUdP6PHnRDrQFLWw9vwqwcrP3NyMfbt4rw5JhX27NDNYl/PF/PFFLSxAuoCwACSAsAAkgLAAJEhMWET0UtpChGdJAokJiz14TfasvF0yz5XEhAVIBRCWhNEqxRvcIcY+u7RsdOzWQrSYm0PG9a7OniARRb5nh2brCx5Lm4TzVyv3ah95yuMOhoiwbOKjMXGqOUBuL7j4euXL20XkLBWjsOoaAhyzu+wjOHnmlByFYalqCoLwTiFZbVDPnhwyOz1ctg60O6PnOEWWuARdIYCE1Fisp/7Jr1fS/2tFVoilpsA1Kxwo2yV2yn7LGCbU2RN84ekQHopGWtsDqczpTY2wXjs+zoKIUoylTCJd3zIOPV1ubNd/i6jcAHSFABJAWAASQFjiAg8qukbkUJgJhMWJLYXqnj/rRrv13zTlPLKOcVPZiYN7MggnltQBYSXmvjvVL2/XEGnvuhzFa7s0BXeimvQoJgd/pEEoXMEAYSVm3f1UGZX8UkQ+bnFCIyynC+dYZ7yjOy2qn11xOfVbWrgI1QOpyMCyVSnODent4uTTsfaHWJLzqF/QsAPPXebguHHIQ096nt4u7arRY8m7NqPAoM7W8nhLgUGdsMqZVHh1t3eekZMXuqLKP22R4+Sf6F1rVGF1W4O8NgM/WC3oFMbTNgXp9Q+Waf5yXPfe25r3D3BSlmYSZqkJn1/7TnbVm8hjxcp3Iu+C/72K3w2tN9MLizp6WLJAtaVQ/fYRH5eisXNyM3Y+Gym9RSlK3tGNZGqjUCP0vOddk0FWovq7m1SGfGXCZeBbl6vmzos8nKtuz1yxWFVvkkbusrk5RFbkulA0ULHwurDR/b/Xc9Zud7LnCf/wFuyBlertj9LXXqOZ3by8XWNqCXKJL9hSFC3lK9q6oNyZEl8o6+arNXUNjEUJCSjDr7nXZNSb0DQu2Wx7iZrpSpRZzF2E7dmh4XI3Z16mfOUlRgtKPwjlGLUyeE5oj8tNq4RbDlOIb9RElOZGDe7nFHpkYZ260QuLY2ii8IVQuJhoGdPZI8THr2/kWmrFeZ7xEI2wGpuD7iAnxQwOpfVtliu4l2uwpKmDcUA5IX/MoDRLNwHs1Ju4WiwefqzwhO4rrnbI6QZhpTWWVsZhFs2s0OXhKpcuQbp8wRh24LFOE0tP5PfG5qAr/hHCA5HOYnAw7i0drLkPUsHcmAR7QSOsPisPuSSzenGqsbSGaKfZm0sYa1DVnPTXnJTw9ua02P1cBRB+qLbQH6LpCr/js0O/qUUOzyhAwmv3TZYqmzTCGujjISyOPg9AltT/lVFZNMKyOXh0hdx9Hklh88NyiFUaNwIUBUnWtqt0YTPfJeXKSNjDf9swOSFAURC7k9/I3dxEb4ZonoCuQR6aZRm+pZxsLVZclDXt8oyaE/6a+OiOlbepVt6e+e350J7XvbHRHHNyMwrXq7O1infe9312Ju572PJQ1pw5Gbah0CtveD0xsUIrblSt/Vkmsd4S6xnXTML+9XGN7mLM1Bw48G6cXV88X1n4D2qXGy8r99sc4hqk8o2xs4+GaM0TVVgcQ/xSRXUtj573t89rNq4Jd51F69Xk9nTEbmx/3B+Jipk+NWPTM9FJ34cHtcQufmsLMmff7CBDPEqeyCopjizj4zi289XImt20yxW1B7MVmvBTvmZV+C2kTHeXaIo2XOi416t9/hEyxG3mdMVHhyObtdy6TJVfkGCdO5bBr5HfHb7LdOamkGEpzd+pWuMrLIG30L3/UR6ZroSqCGL35ov9Pfacn+ZnkntD6rIVhhvp37Iqpj8y5KsIVRHFI1bcED0UuwXcxnuj/6XAmEluAbTwOmXeLB5r3TtfR74I3ctTu3Yv/fk0EaQTaJW0cWBx39GCv0k8UdBp4ybFV16ZeI5M2VhqymV8moievgF+Aujtpj+f2hWyOOmZqKz2zckVX4jJxAmkUaaJVqlobA6OjPA2K31D9IKhCmscFuvBYpFujgBwxx3EWbZaZqG3k/7v1IfSkiQ3BpAm9J2nF0waWXsAEbSOT6qwBJ7liRpRO15EROcAjWbEWCoyWcTujNXYEnWQHv/YP3iOZihJ2UzrZH30+yrb762sjjiivj0fVdynfw7GvqW2Lupme3nf6KUXR57b2FDbyuq4/94o/VV8N20a4mi3nvypPcwnTVNkGPKVo916qSeOekwXLdRJbNmqfKcmVkXED4yxgInidNGY/zhhJWtlG0graAOJ44QVGGdlUCCtcdOlPsQJ6xRz3BYgDLgCxxQSW1Vrp7NYcbNCpgVFSWDtD5XuHRV5dEZCnnnF0+WWWBA9ThfMrCAy9gmmLrRzqQUCABRiVUQQ1xWCqtKZmdOTmb4Q7Qqd32GLr5e2EwgYN7MvzVi3JrN0vPFeA2dDV8ZvuK8Ya8QAYOKAgxRAAggLQAIIC0ACCAtAAggLQML/BwAA//9MH4GJL8qR8wAAAABJRU5ErkJggg==" vertex="1" parent="1">
          <mxGeometry x="95" y="410" width="50" height="50" as="geometry" />
        </mxCell>
        <mxCell id="xsjcqdi1_I2oOMjYGqOI-5" value="" style="shape=image;verticalLabelPosition=bottom;verticalAlign=top;imageAspect=0;aspect=fixed;image=data:image/png,iVBORw0KGgoAAAANSUhEUgAAAMgAAADICAIAAAAiOjnJAAAUuUlEQVR4nOyde3wUVZbHq9OdDk2n0/gExQXDACJKeOgawKUdXz0fYYI7ivJYGR8Js46yEhV0V8I6owHXAXeCG1wdwZEJiwbJrAaJnw2rOyTKkGFMpzvRPE3SMSRNVEy/0uln7aeptrq7UlVdlfStrqo+30/+SKeqK7e7fnXuveeec65qtFuPAUCyyUh1AwB5AsICkADCApAAwgKQAMICkADCApAAwgKQAMICkADCApAAwgKQAMICkADCApAAwgKQAMICkADCApAAwgKQAMICkADCApAAwgKQAMICkADCApAAwgKQAMICkADCApAAwgKQAMICkADCApAAwgKQAMICkADCApAAwgKQAMICkADCApAAwgKQAMICkADCApAAwgKQAMICkADCApAAwgKQAMICkADCApAAwgKQAMICkADCApAAwgKQAMICOIGPKnidz1VYww58+Dt8XE0C5EDjXwO8zucqLMuXwfJD3nE1CZADlf/r53U+V2GZzSFrf2hcTQLkQE09GmFZugLmL4PjahIgB7p6QrwEwFVYLe1BSytYrDTl8zPhW9/WiUBYppbwpRubwWilI6eaw/3gGUuyhVV3OjIjGOiHiWE6Yu3GiQkc97dwEhY5bO/sB4uVjli+ClsW85c8xkKchHW6MWKxOrtgmJWO1DWEDYrdiXd0c7UsnITV2RPRk6kVLFbaYf4ietPbOFsWbmOshsilO3tAWGmHJcaaWDhblsTCGuiLDthdbmzYAeP39MJ6Nmqlmj5PnsXqHIgTKa+pASADSJ8AhmHNPVxXDDkI66s4kdY18FuMBKROY0vUlFjP4s5hTu9KLCzTF3EmChZ20gprf8jljvuLqY2TZUksrI74AXtvB+/GAdKlt4s6pObYZSUW1uBQ3KWbrdAVphH1ZmpQQ6+V0/g9gbCcLryrh3qh2NEcIG8am6n3usGcDItlaqEZUZlhKTptaGmldoWdPZz8TQmERTtUt3SAsNKCYQfeN0jT8XEJckkgLFpPa28v+EjTAiaf5cDXiQWQQFi04cj1n8MYKy0w0w2Ewr3h2QlbLHKVkMLYMR0gP84w3GUuQS5swjI3Mb6/pQ3iZ+QPUywDlyAXNmFZuhjNkqUNxu/yhynLgUuQC5uwepnzvWApWvawTP1cbmz4+wTjdzZh1TM772HFUPYMDrGNdiztCQRALyzneeyeR9xMI/cLUarYsgJXWxfIS55UVvuKn/ewnPDz4pH9B9ky4+mFdX4kVPOnBPM+0xfBc9+AQ0ueeB3Y1wNsN9c2hJ/+nM2sKEa79bQHqmv97HGoBSsyFy5Rcm4qIDEee8rTNcgoAMNS1eaHs6bkMJagUTEdsLQGS/ey2TpDPuN7ARlg6grSrhQTGJaqWFQF9bEAVICwACSAsAAkgLAAJICwACSAsAAkgLDSBdzFr+zxBBFIWPvf9gnzjwAmmk4Kuv4mkLDqGgO4V9AnBqCwq9qDC7gCJ5CwzK3BehO/srtAcmnrCrKEqyQdgYTV/lVIHkUfJLqLwrAD7+zBhbwFQgiLCN6SQZn44e/xiqOStLsWwW+BEMIiPpUMYgPrzgSsQ5L8FMSX39shnLkVQlhE5S4ZlIm39ockGpNNREDVC5hbJYSwyFoPUk8aWzhfOe0SSXr+Wn6IJBYs6FeQMdbnEQvcYpHkyJektw2zfSdJu0vs/4BhWFenQLcAubCs/SF7IPKpLN3Stlg7D4yYm0LcS1KLhI6YJFDBKvULISzyd4kOUEhmXKbE1LhOKzFPb2xG/NiiVIhALqxY30kjc2q1JLhiqiIYwvSsIbki5Kvu6NfeymejpYmAXlgxVdpcXly6Tofq44Ej/+N3ubFX3pDYhqDtMVZKsBR25MLq/TrOSknUTWrtD216LlLkdeerXo7lEkVCbNljwSr1UzNtwt/gthEuCtj6omdKjkKfo3jvDS3TOcMOvC8+Pc3SGlxtzJxYm1NARZXP7oy+PPS+r2TLpFQ2iA+UnGbLl0HDUsYMK+N6F/ELS4pO+As56iP6os0PZ9HeUBphsSRAx7WPg8Nz7Gg93JotXC4vaiRUOnrYgdviyxPXNQRYhMXx7lvP4tYLcwLDUnpLgbYrbGyh+hc6hJqVJBG3HRs8F9dsHxai/EW0jH22hXGXUJXLd8qj17Ed/ewM9TPYhvDBc6ErporXf93bhdc3+Vvag6aWYK8V77PRCOjIR/4jH/kxDJs2JWPuNYq8H6lmzlIsnK9ksQSpYmxEQ0Mjm7BmTldYz/IYhM24iP5WUr+IhfOVK/KV9dzsIYZhe3ZoWI7SDtQGh/ArpnK8vEDgAexIje/ocX/d6UDsWCohtuGQrSHafWRrsVuXqwpuz7xluWrmVaJ4eHrHuNrZdbN7h+b+R0c4Xlyvw1b/Pf2ImebDFxdlcbzu4vnKjWvUTEf/8I6fdhxWtl9E0/XqWn/Rkx7NXPuDxZ5jJ/ipaiwuN3bsROAX/+y5xuC8c72rujb1MTYWum2VWCr1rzZmGvK5luTYs0PDlGhPXxTkniJ3zSeJl1/eekWz4WeMwrp6kcvmoLF8mklYw4fZc2elsqDIwFn8raPeg+/52GuqTJxsLba2IPN+Y9YtP07B51220mVicFyd+kC7ZAF9x93RHcy7w5Xw4oZ8Ze072UxH6c31kgWcvoV5s9lOW3Mv/dH//DdNClXV24mv2eiZtcJRuteLWlWEDTvwrv8nj7iWrXYJv6PHL39O/9gb8pWXMIyNMAzjeHfYB5QIxwFMRpKym5Rg4F7Fszs9837i+PCzFKQMmVqCxg3uomKPkC7iq6+mv7+GpciHgKIYYApA3enAvDvsew+kOAvtULXvplXO0rLR1DZDAOQvLKcL3/qCx7jBzWsWjQ67Eyt91Vu0eVTemyDLXFgd3UHjfSPl4kuXPVTjXWR0VlaLrmHJQs7Cqjjqy7vDZWoXaXShbQh/sNizadsILg0fPj9kK6ytL3o2PcNW91ckVFT57/1FiqYzKJGnsDZtGyn/vWR6mZpPAk//iwSeAV7IUFiPPeepqEq9y5sX+yp99xS5nS75DOflJqxN20beelcytiqWmk8Ct691yWaqKCthVRz1Sc5WxWJpDW16musCsMiRj7DqTgckMVpn59jHgbI3RbRIP25kIqxhB37fP8pkblX66qhEMwNikYOwRjz4XQ+4JhjxIh5cbmzdY5IfyMtBWL875CNTyOWBqSX0693SXk+UvLCGHfj+CklOA9kpr/AJH2aTRJAIa3gIrzsdYBoodHYH604HEm7RyZHyt7xd0h+R0LL1xfHPRb63hW8BU3qwtT/EcjQpIBFW+Tte4wY308x/7wGfcYO7/A9JmPsM2/H/+L0c5lC0WFpDxz8ep/dkX2X4Fmwrpe9PK6r84aMTEG5CRJdVwoXYrFrZjNlpeXy7Z++FFAGmvFDRgkRYM6cnNoR5M8cfncw9q1bq2IZw2xBbXigTedcm/npnXIYwQBxJV7hxjXpOLtuVDflKprQhCsb1rkmz7JQf4waRuqyylXHR2DmqpNWlKd3rHfs9sLjuuCTb7HiGazrWOEA1K9xSyNbo3azZiLTMyc1or9O11+nyrg23efFslc2UQ77ceG+mrSn6Mu/ayMkrFmYSL1s/0tuach65J9Kq3/1aO9qtf7ss0owH7sr65oyefLt+sqLq9fAJb/5GQ2TkFtypaq/T2ZpySp6IXOE3z2hsTTmnPsgmTtDrsNrD2h6TjjxhS6F6qCOn9rCWOGHlj1VEC3+6TE00qaEqfMGN92aSb/d06jc/pCZf2ppyVt6mIl42vJ9ta8q56+a4p9HOurD45u7JLEdLnshCGvZOn/5VuneUfd9eglMfZDPl8zQ2B5ffzZhCxLQR9ViM611Er0emmg2eC+Uuc5L/urE5UPDQSNtJnS47bB4G+vHrjI6+v+QQL50ufN5y17H/0hCpTiMefP6tzuJCdfGmSEmPZ58frfnUZzmuV0zCie37c2+xlzyRRZ6w/7D35de8nZ/mkE26v3DksqnYvl2Tf/ikgeV3u0+9r12SFxlX3FPkdrlxMjWq7nTAuMHdVJtNJDU5XfiCO5x/fHMymX219LaRJ4tVa1dHMmqWrXYVF6rX3h1++e350FU3Og+WaYijlG+VPQELw7BJs+xMh2oPa1nSbFjeSFKyJYulMopkBu9kqhmRnk8KeskC1YzpGYSMMAy78irFvNlK8qUuWzHjagV5CydrFHNzM2Lz6VbdpQqcVxKqCp9/MbbkemXsCXNnKY2GODux7G+VNyyKPk7EyaSqxibPEfePbL8um9qGG5Yq7pw1GcMiXqsl1yvJEgSXXpxhyFeSmuOYlicGJO8gnTj6KfxGQjp98iv66TOjitFKRjxsSMZile332oZCuF+hyMSJDoU0SxMFF1fpR/eY+e6wA6846jt2wu9M3EGJBckI68ixOFehcYP7o0Na9h36ZUP+KqdIcte4I9Wu0NQSvO9ByUdfJeTb86GOnpDkVCVhYWEYVm/2VxyV4fJzLBVVfko9PqkgdmGxx4BXn0hCIDI+YR++fsKO0D4v/RMi5A6DyUXsYyz2SqfHTgQIjwvF78L+cqzj/qVKjP2EA4kSNMY6fiiOQPYmUa6f8N+JH1FbrK2/SjCKmna5onCdevH1spigj6FwnfqSi9hsYUdP6PHnRDrQFLWw9vwqwcrP3NyMfbt4rw5JhX27NDNYl/PF/PFFLSxAuoCwACSAsAAkgLAAJEhMWET0UtpChGdJAokJiz14TfasvF0yz5XEhAVIBRCWhNEqxRvcIcY+u7RsdOzWQrSYm0PG9a7OniARRb5nh2brCx5Lm4TzVyv3ah95yuMOhoiwbOKjMXGqOUBuL7j4euXL20XkLBWjsOoaAhyzu+wjOHnmlByFYalqCoLwTiFZbVDPnhwyOz1ctg60O6PnOEWWuARdIYCE1Fisp/7Jr1fS/2tFVoilpsA1Kxwo2yV2yn7LGCbU2RN84ekQHopGWtsDqczpTY2wXjs+zoKIUoylTCJd3zIOPV1ubNd/i6jcAHSFABJAWAASQFjiAg8qukbkUJgJhMWJLYXqnj/rRrv13zTlPLKOcVPZiYN7MggnltQBYSXmvjvVL2/XEGnvuhzFa7s0BXeimvQoJgd/pEEoXMEAYSVm3f1UGZX8UkQ+bnFCIyynC+dYZ7yjOy2qn11xOfVbWrgI1QOpyMCyVSnODent4uTTsfaHWJLzqF/QsAPPXebguHHIQ096nt4u7arRY8m7NqPAoM7W8nhLgUGdsMqZVHh1t3eekZMXuqLKP22R4+Sf6F1rVGF1W4O8NgM/WC3oFMbTNgXp9Q+Waf5yXPfe25r3D3BSlmYSZqkJn1/7TnbVm8hjxcp3Iu+C/72K3w2tN9MLizp6WLJAtaVQ/fYRH5eisXNyM3Y+Gym9RSlK3tGNZGqjUCP0vOddk0FWovq7m1SGfGXCZeBbl6vmzos8nKtuz1yxWFVvkkbusrk5RFbkulA0ULHwurDR/b/Xc9Zud7LnCf/wFuyBlertj9LXXqOZ3by8XWNqCXKJL9hSFC3lK9q6oNyZEl8o6+arNXUNjEUJCSjDr7nXZNSb0DQu2Wx7iZrpSpRZzF2E7dmh4XI3Z16mfOUlRgtKPwjlGLUyeE5oj8tNq4RbDlOIb9RElOZGDe7nFHpkYZ260QuLY2ii8IVQuJhoGdPZI8THr2/kWmrFeZ7xEI2wGpuD7iAnxQwOpfVtliu4l2uwpKmDcUA5IX/MoDRLNwHs1Ju4WiwefqzwhO4rrnbI6QZhpTWWVsZhFs2s0OXhKpcuQbp8wRh24LFOE0tP5PfG5qAr/hHCA5HOYnAw7i0drLkPUsHcmAR7QSOsPisPuSSzenGqsbSGaKfZm0sYa1DVnPTXnJTw9ua02P1cBRB+qLbQH6LpCr/js0O/qUUOzyhAwmv3TZYqmzTCGujjISyOPg9AltT/lVFZNMKyOXh0hdx9Hklh88NyiFUaNwIUBUnWtqt0YTPfJeXKSNjDf9swOSFAURC7k9/I3dxEb4ZonoCuQR6aZRm+pZxsLVZclDXt8oyaE/6a+OiOlbepVt6e+e350J7XvbHRHHNyMwrXq7O1infe9312Ju572PJQ1pw5Gbah0CtveD0xsUIrblSt/Vkmsd4S6xnXTML+9XGN7mLM1Bw48G6cXV88X1n4D2qXGy8r99sc4hqk8o2xs4+GaM0TVVgcQ/xSRXUtj573t89rNq4Jd51F69Xk9nTEbmx/3B+Jipk+NWPTM9FJ34cHtcQufmsLMmff7CBDPEqeyCopjizj4zi289XImt20yxW1B7MVmvBTvmZV+C2kTHeXaIo2XOi416t9/hEyxG3mdMVHhyObtdy6TJVfkGCdO5bBr5HfHb7LdOamkGEpzd+pWuMrLIG30L3/UR6ZroSqCGL35ov9Pfacn+ZnkntD6rIVhhvp37Iqpj8y5KsIVRHFI1bcED0UuwXcxnuj/6XAmEluAbTwOmXeLB5r3TtfR74I3ctTu3Yv/fk0EaQTaJW0cWBx39GCv0k8UdBp4ybFV16ZeI5M2VhqymV8moievgF+Aujtpj+f2hWyOOmZqKz2zckVX4jJxAmkUaaJVqlobA6OjPA2K31D9IKhCmscFuvBYpFujgBwxx3EWbZaZqG3k/7v1IfSkiQ3BpAm9J2nF0waWXsAEbSOT6qwBJ7liRpRO15EROcAjWbEWCoyWcTujNXYEnWQHv/YP3iOZihJ2UzrZH30+yrb762sjjiivj0fVdynfw7GvqW2Lupme3nf6KUXR57b2FDbyuq4/94o/VV8N20a4mi3nvypPcwnTVNkGPKVo916qSeOekwXLdRJbNmqfKcmVkXED4yxgInidNGY/zhhJWtlG0graAOJ44QVGGdlUCCtcdOlPsQJ6xRz3BYgDLgCxxQSW1Vrp7NYcbNCpgVFSWDtD5XuHRV5dEZCnnnF0+WWWBA9ThfMrCAy9gmmLrRzqQUCABRiVUQQ1xWCqtKZmdOTmb4Q7Qqd32GLr5e2EwgYN7MvzVi3JrN0vPFeA2dDV8ZvuK8Ya8QAYOKAgxRAAggLQAIIC0ACCAtAAggLQML/BwAA//9MH4GJL8qR8wAAAABJRU5ErkJggg==" vertex="1" parent="1">
          <mxGeometry x="95" y="500" width="50" height="50" as="geometry" />
        </mxCell>
        <mxCell id="xsjcqdi1_I2oOMjYGqOI-6" value="" style="endArrow=classic;html=1;rounded=0;" edge="1" parent="1">
          <mxGeometry width="50" height="50" relative="1" as="geometry">
            <mxPoint x="160" y="370" as="sourcePoint" />
            <mxPoint x="270" y="370" as="targetPoint" />
          </mxGeometry>
        </mxCell>
        <mxCell id="xsjcqdi1_I2oOMjYGqOI-7" value="flatten" style="text;html=1;align=center;verticalAlign=middle;resizable=0;points=[];autosize=1;strokeColor=none;fillColor=none;" vertex="1" parent="1">
          <mxGeometry x="180" y="348" width="60" height="30" as="geometry" />
        </mxCell>
        <mxCell id="xsjcqdi1_I2oOMjYGqOI-8" value="" style="rounded=0;whiteSpace=wrap;html=1;" vertex="1" parent="1">
          <mxGeometry x="280" y="360" width="20" height="20" as="geometry" />
        </mxCell>
        <mxCell id="xsjcqdi1_I2oOMjYGqOI-9" value="" style="rounded=0;whiteSpace=wrap;html=1;" vertex="1" parent="1">
          <mxGeometry x="240" y="320" width="20" height="20" as="geometry" />
        </mxCell>
        <mxCell id="xsjcqdi1_I2oOMjYGqOI-10" value="" style="rounded=0;whiteSpace=wrap;html=1;" vertex="1" parent="1">
          <mxGeometry x="200" y="320" width="20" height="20" as="geometry" />
        </mxCell>
        <mxCell id="xsjcqdi1_I2oOMjYGqOI-11" value="" style="rounded=0;whiteSpace=wrap;html=1;" vertex="1" parent="1">
          <mxGeometry x="310" y="360" width="20" height="20" as="geometry" />
        </mxCell>
        <mxCell id="xsjcqdi1_I2oOMjYGqOI-12" value="" style="rounded=0;whiteSpace=wrap;html=1;" vertex="1" parent="1">
          <mxGeometry x="220" y="320" width="20" height="20" as="geometry" />
        </mxCell>
        <mxCell id="xsjcqdi1_I2oOMjYGqOI-14" style="rounded=0;orthogonalLoop=1;jettySize=auto;html=1;exitX=0;exitY=0.5;exitDx=0;exitDy=0;entryX=1;entryY=0.5;entryDx=0;entryDy=0;strokeColor=#FF5511;" edge="1" parent="1" source="xsjcqdi1_I2oOMjYGqOI-13" target="xsjcqdi1_I2oOMjYGqOI-9">
          <mxGeometry relative="1" as="geometry" />
        </mxCell>
        <mxCell id="xsjcqdi1_I2oOMjYGqOI-13" value="" style="rounded=0;whiteSpace=wrap;html=1;" vertex="1" parent="1">
          <mxGeometry x="180" y="320" width="20" height="20" as="geometry" />
        </mxCell>
        <mxCell id="xsjcqdi1_I2oOMjYGqOI-15" style="rounded=0;orthogonalLoop=1;jettySize=auto;html=1;exitX=1;exitY=0.5;exitDx=0;exitDy=0;entryX=0;entryY=0.5;entryDx=0;entryDy=0;endArrow=none;startFill=0;strokeColor=#FF4B14;" edge="1" parent="1" source="xsjcqdi1_I2oOMjYGqOI-13" target="xsjcqdi1_I2oOMjYGqOI-13">
          <mxGeometry relative="1" as="geometry" />
        </mxCell>
        <mxCell id="xsjcqdi1_I2oOMjYGqOI-18" value="" style="rounded=0;whiteSpace=wrap;html=1;" vertex="1" parent="1">
          <mxGeometry x="340" y="360" width="20" height="20" as="geometry" />
        </mxCell>
        <mxCell id="xsjcqdi1_I2oOMjYGqOI-19" value="" style="rounded=0;whiteSpace=wrap;html=1;" vertex="1" parent="1">
          <mxGeometry x="370" y="360" width="20" height="20" as="geometry" />
        </mxCell>
        <mxCell id="xsjcqdi1_I2oOMjYGqOI-20" value="" style="shape=curlyBracket;whiteSpace=wrap;html=1;rounded=1;labelPosition=left;verticalLabelPosition=middle;align=right;verticalAlign=middle;rotation=90;" vertex="1" parent="1">
          <mxGeometry x="320" y="280" width="30" height="110" as="geometry" />
        </mxCell>
        <mxCell id="xsjcqdi1_I2oOMjYGqOI-21" value="pixel sequence" style="text;html=1;align=center;verticalAlign=middle;whiteSpace=wrap;rounded=0;" vertex="1" parent="1">
          <mxGeometry x="295" y="300" width="95" height="30" as="geometry" />
        </mxCell>
        <mxCell id="xsjcqdi1_I2oOMjYGqOI-22" value="" style="shape=trapezoid;perimeter=trapezoidPerimeter;whiteSpace=wrap;html=1;fixedSize=1;rotation=-90;fillColor=#ffe6cc;strokeColor=#d79b00;" vertex="1" parent="1">
          <mxGeometry x="154.25" y="410" width="77.5" height="52.5" as="geometry" />
        </mxCell>
        <mxCell id="xsjcqdi1_I2oOMjYGqOI-23" value="Visual&lt;br/&gt; Tokenizer" style="text;html=1;align=center;verticalAlign=middle;whiteSpace=wrap;rounded=0;" vertex="1" parent="1">
          <mxGeometry x="170" y="420" width="46" height="20" as="geometry" />
        </mxCell>
        <mxCell id="xsjcqdi1_I2oOMjYGqOI-24" value="" style="endArrow=classic;html=1;rounded=0;" edge="1" parent="1">
          <mxGeometry width="50" height="50" relative="1" as="geometry">
            <mxPoint x="230" y="435.90999999999997" as="sourcePoint" />
            <mxPoint x="290" y="436" as="targetPoint" />
          </mxGeometry>
        </mxCell>
        <mxCell id="xsjcqdi1_I2oOMjYGqOI-35" value="" style="rounded=0;whiteSpace=wrap;html=1;fillColor=#e1d5e7;strokeColor=#9673a6;" vertex="1" parent="1">
          <mxGeometry x="355" y="410" width="20" height="20" as="geometry" />
        </mxCell>
        <mxCell id="xsjcqdi1_I2oOMjYGqOI-36" value="" style="rounded=0;whiteSpace=wrap;html=1;fillColor=#fff2cc;strokeColor=#d6b656;" vertex="1" parent="1">
          <mxGeometry x="315" y="410" width="20" height="20" as="geometry" />
        </mxCell>
        <mxCell id="xsjcqdi1_I2oOMjYGqOI-37" value="" style="rounded=0;whiteSpace=wrap;html=1;fillColor=#f8cecc;strokeColor=#b85450;" vertex="1" parent="1">
          <mxGeometry x="335" y="410" width="20" height="20" as="geometry" />
        </mxCell>
        <mxCell id="xsjcqdi1_I2oOMjYGqOI-39" value="" style="rounded=0;whiteSpace=wrap;html=1;fillColor=#ffe6cc;strokeColor=#d79b00;" vertex="1" parent="1">
          <mxGeometry x="295" y="410" width="20" height="20" as="geometry" />
        </mxCell>
        <mxCell id="xsjcqdi1_I2oOMjYGqOI-42" value="" style="rounded=0;whiteSpace=wrap;html=1;" vertex="1" parent="1">
          <mxGeometry x="355" y="430" width="20" height="20" as="geometry" />
        </mxCell>
        <mxCell id="xsjcqdi1_I2oOMjYGqOI-43" value="" style="rounded=0;whiteSpace=wrap;html=1;" vertex="1" parent="1">
          <mxGeometry x="315" y="430" width="20" height="20" as="geometry" />
        </mxCell>
        <mxCell id="xsjcqdi1_I2oOMjYGqOI-44" value="" style="rounded=0;whiteSpace=wrap;html=1;" vertex="1" parent="1">
          <mxGeometry x="335" y="430" width="20" height="20" as="geometry" />
        </mxCell>
        <mxCell id="xsjcqdi1_I2oOMjYGqOI-45" value="" style="rounded=0;whiteSpace=wrap;html=1;" vertex="1" parent="1">
          <mxGeometry x="295" y="430" width="20" height="20" as="geometry" />
        </mxCell>
        <mxCell id="xsjcqdi1_I2oOMjYGqOI-46" value="" style="rounded=0;whiteSpace=wrap;html=1;" vertex="1" parent="1">
          <mxGeometry x="355" y="450" width="20" height="20" as="geometry" />
        </mxCell>
        <mxCell id="xsjcqdi1_I2oOMjYGqOI-47" value="" style="rounded=0;whiteSpace=wrap;html=1;" vertex="1" parent="1">
          <mxGeometry x="315" y="450" width="20" height="20" as="geometry" />
        </mxCell>
        <mxCell id="xsjcqdi1_I2oOMjYGqOI-48" value="" style="rounded=0;whiteSpace=wrap;html=1;" vertex="1" parent="1">
          <mxGeometry x="335" y="450" width="20" height="20" as="geometry" />
        </mxCell>
        <mxCell id="xsjcqdi1_I2oOMjYGqOI-49" value="" style="rounded=0;whiteSpace=wrap;html=1;" vertex="1" parent="1">
          <mxGeometry x="295" y="450" width="20" height="20" as="geometry" />
        </mxCell>
        <mxCell id="xsjcqdi1_I2oOMjYGqOI-50" value="" style="rounded=0;whiteSpace=wrap;html=1;" vertex="1" parent="1">
          <mxGeometry x="355" y="470" width="20" height="20" as="geometry" />
        </mxCell>
        <mxCell id="xsjcqdi1_I2oOMjYGqOI-51" value="" style="rounded=0;whiteSpace=wrap;html=1;" vertex="1" parent="1">
          <mxGeometry x="315" y="470" width="20" height="20" as="geometry" />
        </mxCell>
        <mxCell id="xsjcqdi1_I2oOMjYGqOI-52" value="" style="rounded=0;whiteSpace=wrap;html=1;" vertex="1" parent="1">
          <mxGeometry x="335" y="470" width="20" height="20" as="geometry" />
        </mxCell>
        <mxCell id="xsjcqdi1_I2oOMjYGqOI-53" value="" style="rounded=0;whiteSpace=wrap;html=1;" vertex="1" parent="1">
          <mxGeometry x="295" y="470" width="20" height="20" as="geometry" />
        </mxCell>
        <mxCell id="xsjcqdi1_I2oOMjYGqOI-54" value="" style="endArrow=classic;html=1;rounded=0;" edge="1" parent="1">
          <mxGeometry width="50" height="50" relative="1" as="geometry">
            <mxPoint x="384" y="434.71" as="sourcePoint" />
            <mxPoint x="444" y="434.8" as="targetPoint" />
          </mxGeometry>
        </mxCell>
        <mxCell id="xsjcqdi1_I2oOMjYGqOI-55" value="" style="rounded=0;whiteSpace=wrap;html=1;fillColor=#ffe6cc;strokeColor=#d79b00;" vertex="1" parent="1">
          <mxGeometry x="450" y="426.25" width="20" height="20" as="geometry" />
        </mxCell>
        <mxCell id="xsjcqdi1_I2oOMjYGqOI-56" value="" style="rounded=0;whiteSpace=wrap;html=1;fillColor=#fff2cc;strokeColor=#d6b656;" vertex="1" parent="1">
          <mxGeometry x="480" y="426.25" width="20" height="20" as="geometry" />
        </mxCell>
        <mxCell id="xsjcqdi1_I2oOMjYGqOI-57" value="" style="rounded=0;whiteSpace=wrap;html=1;fillColor=#f8cecc;strokeColor=#b85450;" vertex="1" parent="1">
          <mxGeometry x="510" y="426.25" width="20" height="20" as="geometry" />
        </mxCell>
        <mxCell id="xsjcqdi1_I2oOMjYGqOI-58" value="" style="rounded=0;whiteSpace=wrap;html=1;fillColor=#e1d5e7;strokeColor=#9673a6;" vertex="1" parent="1">
          <mxGeometry x="540" y="426.25" width="20" height="20" as="geometry" />
        </mxCell>
        <mxCell id="xsjcqdi1_I2oOMjYGqOI-59" value="..." style="text;html=1;align=center;verticalAlign=middle;whiteSpace=wrap;rounded=0;" vertex="1" parent="1">
          <mxGeometry x="384" y="355" width="60" height="30" as="geometry" />
        </mxCell>
        <mxCell id="xsjcqdi1_I2oOMjYGqOI-60" value="..." style="text;html=1;align=center;verticalAlign=middle;whiteSpace=wrap;rounded=0;" vertex="1" parent="1">
          <mxGeometry x="550" y="420" width="60" height="30" as="geometry" />
        </mxCell>
        <mxCell id="xsjcqdi1_I2oOMjYGqOI-61" value="" style="shape=curlyBracket;whiteSpace=wrap;html=1;rounded=1;labelPosition=left;verticalLabelPosition=middle;align=right;verticalAlign=middle;rotation=-90;" vertex="1" parent="1">
          <mxGeometry x="490" y="410" width="30" height="110" as="geometry" />
        </mxCell>
        <mxCell id="xsjcqdi1_I2oOMjYGqOI-62" value="token sequence" style="text;html=1;align=center;verticalAlign=middle;whiteSpace=wrap;rounded=0;" vertex="1" parent="1">
          <mxGeometry x="455" y="470" width="95" height="30" as="geometry" />
        </mxCell>
        <mxCell id="xsjcqdi1_I2oOMjYGqOI-63" value="" style="shape=trapezoid;perimeter=trapezoidPerimeter;whiteSpace=wrap;html=1;fixedSize=1;rotation=-90;fillColor=#ffe6cc;strokeColor=#d79b00;" vertex="1" parent="1">
          <mxGeometry x="154.25" y="500" width="77.5" height="52.5" as="geometry" />
        </mxCell>
        <mxCell id="xsjcqdi1_I2oOMjYGqOI-64" value="Multi-scale&amp;nbsp;&lt;br&gt; Tokenizer" style="text;html=1;align=center;verticalAlign=middle;whiteSpace=wrap;rounded=0;" vertex="1" parent="1">
          <mxGeometry x="170" y="510" width="51.75" height="20" as="geometry" />
        </mxCell>
        <mxCell id="xsjcqdi1_I2oOMjYGqOI-65" value="" style="endArrow=classic;html=1;rounded=0;" edge="1" parent="1">
          <mxGeometry width="50" height="50" relative="1" as="geometry">
            <mxPoint x="231.75" y="524.71" as="sourcePoint" />
            <mxPoint x="291.75" y="524.8000000000001" as="targetPoint" />
          </mxGeometry>
        </mxCell>
        <mxCell id="xsjcqdi1_I2oOMjYGqOI-66" value="" style="rounded=0;whiteSpace=wrap;html=1;fillColor=#60a917;fontColor=#ffffff;strokeColor=#2D7600;" vertex="1" parent="1">
          <mxGeometry x="300" y="520" width="20" height="20" as="geometry" />
        </mxCell>
        <mxCell id="xsjcqdi1_I2oOMjYGqOI-67" value="" style="rounded=0;whiteSpace=wrap;html=1;fillColor=#008a00;fontColor=#ffffff;strokeColor=#005700;" vertex="1" parent="1">
          <mxGeometry x="332.5" y="516.25" width="20" height="20" as="geometry" />
        </mxCell>
        <mxCell id="xsjcqdi1_I2oOMjYGqOI-68" value="" style="rounded=0;whiteSpace=wrap;html=1;fillColor=#1ba1e2;fontColor=#ffffff;strokeColor=#006EAF;" vertex="1" parent="1">
          <mxGeometry x="352.5" y="516.25" width="20" height="20" as="geometry" />
        </mxCell>
        <mxCell id="xsjcqdi1_I2oOMjYGqOI-69" value="" style="rounded=0;whiteSpace=wrap;html=1;" vertex="1" parent="1">
          <mxGeometry x="332.5" y="536.25" width="20" height="20" as="geometry" />
        </mxCell>
        <mxCell id="xsjcqdi1_I2oOMjYGqOI-70" value="" style="rounded=0;whiteSpace=wrap;html=1;" vertex="1" parent="1">
          <mxGeometry x="352.5" y="536.25" width="20" height="20" as="geometry" />
        </mxCell>
        <mxCell id="xsjcqdi1_I2oOMjYGqOI-71" value="r1" style="text;html=1;align=center;verticalAlign=middle;resizable=0;points=[];autosize=1;strokeColor=none;fillColor=none;" vertex="1" parent="1">
          <mxGeometry x="295" y="550" width="30" height="30" as="geometry" />
        </mxCell>
        <mxCell id="xsjcqdi1_I2oOMjYGqOI-72" value="r2" style="text;html=1;align=center;verticalAlign=middle;resizable=0;points=[];autosize=1;strokeColor=none;fillColor=none;" vertex="1" parent="1">
          <mxGeometry x="335" y="550" width="30" height="30" as="geometry" />
        </mxCell>
        <mxCell id="xsjcqdi1_I2oOMjYGqOI-73" value="..." style="text;html=1;align=center;verticalAlign=middle;whiteSpace=wrap;rounded=0;" vertex="1" parent="1">
          <mxGeometry x="365" y="520" width="60" height="30" as="geometry" />
        </mxCell>
        <mxCell id="xsjcqdi1_I2oOMjYGqOI-74" value="" style="rounded=0;whiteSpace=wrap;html=1;fillColor=#e1d5e7;strokeColor=#9673a6;" vertex="1" parent="1">
          <mxGeometry x="470" y="510" width="20" height="20" as="geometry" />
        </mxCell>
        <mxCell id="xsjcqdi1_I2oOMjYGqOI-75" value="" style="rounded=0;whiteSpace=wrap;html=1;fillColor=#fff2cc;strokeColor=#d6b656;" vertex="1" parent="1">
          <mxGeometry x="430" y="510" width="20" height="20" as="geometry" />
        </mxCell>
        <mxCell id="xsjcqdi1_I2oOMjYGqOI-76" value="" style="rounded=0;whiteSpace=wrap;html=1;fillColor=#f8cecc;strokeColor=#b85450;" vertex="1" parent="1">
          <mxGeometry x="450" y="510" width="20" height="20" as="geometry" />
        </mxCell>
        <mxCell id="xsjcqdi1_I2oOMjYGqOI-77" value="" style="rounded=0;whiteSpace=wrap;html=1;fillColor=#ffe6cc;strokeColor=#d79b00;" vertex="1" parent="1">
          <mxGeometry x="410" y="510" width="20" height="20" as="geometry" />
        </mxCell>
        <mxCell id="xsjcqdi1_I2oOMjYGqOI-78" value="" style="rounded=0;whiteSpace=wrap;html=1;" vertex="1" parent="1">
          <mxGeometry x="470" y="530" width="20" height="20" as="geometry" />
        </mxCell>
        <mxCell id="xsjcqdi1_I2oOMjYGqOI-79" value="" style="rounded=0;whiteSpace=wrap;html=1;" vertex="1" parent="1">
          <mxGeometry x="430" y="530" width="20" height="20" as="geometry" />
        </mxCell>
        <mxCell id="xsjcqdi1_I2oOMjYGqOI-80" value="" style="rounded=0;whiteSpace=wrap;html=1;" vertex="1" parent="1">
          <mxGeometry x="450" y="530" width="20" height="20" as="geometry" />
        </mxCell>
        <mxCell id="xsjcqdi1_I2oOMjYGqOI-81" value="" style="rounded=0;whiteSpace=wrap;html=1;" vertex="1" parent="1">
          <mxGeometry x="410" y="530" width="20" height="20" as="geometry" />
        </mxCell>
        <mxCell id="xsjcqdi1_I2oOMjYGqOI-82" value="" style="rounded=0;whiteSpace=wrap;html=1;" vertex="1" parent="1">
          <mxGeometry x="470" y="550" width="20" height="20" as="geometry" />
        </mxCell>
        <mxCell id="xsjcqdi1_I2oOMjYGqOI-83" value="" style="rounded=0;whiteSpace=wrap;html=1;" vertex="1" parent="1">
          <mxGeometry x="430" y="550" width="20" height="20" as="geometry" />
        </mxCell>
        <mxCell id="xsjcqdi1_I2oOMjYGqOI-84" value="" style="rounded=0;whiteSpace=wrap;html=1;" vertex="1" parent="1">
          <mxGeometry x="450" y="550" width="20" height="20" as="geometry" />
        </mxCell>
        <mxCell id="xsjcqdi1_I2oOMjYGqOI-85" value="" style="rounded=0;whiteSpace=wrap;html=1;" vertex="1" parent="1">
          <mxGeometry x="410" y="550" width="20" height="20" as="geometry" />
        </mxCell>
        <mxCell id="xsjcqdi1_I2oOMjYGqOI-86" value="" style="rounded=0;whiteSpace=wrap;html=1;" vertex="1" parent="1">
          <mxGeometry x="470" y="570" width="20" height="20" as="geometry" />
        </mxCell>
        <mxCell id="xsjcqdi1_I2oOMjYGqOI-87" value="" style="rounded=0;whiteSpace=wrap;html=1;" vertex="1" parent="1">
          <mxGeometry x="430" y="570" width="20" height="20" as="geometry" />
        </mxCell>
        <mxCell id="xsjcqdi1_I2oOMjYGqOI-88" value="" style="rounded=0;whiteSpace=wrap;html=1;" vertex="1" parent="1">
          <mxGeometry x="450" y="570" width="20" height="20" as="geometry" />
        </mxCell>
        <mxCell id="xsjcqdi1_I2oOMjYGqOI-89" value="" style="rounded=0;whiteSpace=wrap;html=1;" vertex="1" parent="1">
          <mxGeometry x="410" y="570" width="20" height="20" as="geometry" />
        </mxCell>
        <mxCell id="xsjcqdi1_I2oOMjYGqOI-90" value="" style="endArrow=classic;html=1;rounded=0;" edge="1" parent="1">
          <mxGeometry width="50" height="50" relative="1" as="geometry">
            <mxPoint x="500" y="529.4300000000001" as="sourcePoint" />
            <mxPoint x="560" y="529.5200000000001" as="targetPoint" />
          </mxGeometry>
        </mxCell>
        <mxCell id="xsjcqdi1_I2oOMjYGqOI-92" value="" style="rounded=1;whiteSpace=wrap;html=1;rotation=90;dashed=1;" vertex="1" parent="1">
          <mxGeometry x="530" y="531.25" width="110" height="30" as="geometry" />
        </mxCell>
        <mxCell id="xsjcqdi1_I2oOMjYGqOI-93" value="" style="rounded=0;whiteSpace=wrap;html=1;fillColor=#60a917;fontColor=#ffffff;strokeColor=#2D7600;" vertex="1" parent="1">
          <mxGeometry x="575" y="525" width="20" height="20" as="geometry" />
        </mxCell>
        <mxCell id="xsjcqdi1_I2oOMjYGqOI-94" value="" style="rounded=1;whiteSpace=wrap;html=1;rotation=90;dashed=1;" vertex="1" parent="1">
          <mxGeometry x="575" y="531.25" width="110" height="30" as="geometry" />
        </mxCell>
        <mxCell id="xsjcqdi1_I2oOMjYGqOI-96" value="" style="rounded=0;whiteSpace=wrap;html=1;fillColor=#008a00;fontColor=#ffffff;strokeColor=#005700;" vertex="1" parent="1">
          <mxGeometry x="620" y="505" width="20" height="20" as="geometry" />
        </mxCell>
        <mxCell id="xsjcqdi1_I2oOMjYGqOI-97" value="" style="rounded=0;whiteSpace=wrap;html=1;fillColor=#1ba1e2;fontColor=#ffffff;strokeColor=#006EAF;" vertex="1" parent="1">
          <mxGeometry x="620" y="525" width="20" height="20" as="geometry" />
        </mxCell>
        <mxCell id="xsjcqdi1_I2oOMjYGqOI-98" value="..." style="text;html=1;align=center;verticalAlign=middle;whiteSpace=wrap;rounded=0;" vertex="1" parent="1">
          <mxGeometry x="600" y="540" width="60" height="30" as="geometry" />
        </mxCell>
        <mxCell id="xsjcqdi1_I2oOMjYGqOI-99" value="..." style="text;html=1;align=center;verticalAlign=middle;whiteSpace=wrap;rounded=0;" vertex="1" parent="1">
          <mxGeometry x="630" y="520" width="60" height="30" as="geometry" />
        </mxCell>
        <mxCell id="xsjcqdi1_I2oOMjYGqOI-100" value="" style="rounded=0;whiteSpace=wrap;html=1;fillColor=#e1d5e7;strokeColor=#9673a6;" vertex="1" parent="1">
          <mxGeometry x="690" y="555" width="20" height="20" as="geometry" />
        </mxCell>
        <mxCell id="xsjcqdi1_I2oOMjYGqOI-101" value="" style="rounded=0;whiteSpace=wrap;html=1;fillColor=#fff2cc;strokeColor=#d6b656;" vertex="1" parent="1">
          <mxGeometry x="690" y="515" width="20" height="20" as="geometry" />
        </mxCell>
        <mxCell id="xsjcqdi1_I2oOMjYGqOI-102" value="" style="rounded=0;whiteSpace=wrap;html=1;fillColor=#f8cecc;strokeColor=#b85450;" vertex="1" parent="1">
          <mxGeometry x="690" y="535" width="20" height="20" as="geometry" />
        </mxCell>
        <mxCell id="xsjcqdi1_I2oOMjYGqOI-103" value="" style="rounded=0;whiteSpace=wrap;html=1;fillColor=#ffe6cc;strokeColor=#d79b00;" vertex="1" parent="1">
          <mxGeometry x="690" y="496.25" width="20" height="20" as="geometry" />
        </mxCell>
        <mxCell id="xsjcqdi1_I2oOMjYGqOI-106" value="..." style="text;html=1;align=center;verticalAlign=middle;whiteSpace=wrap;rounded=0;" vertex="1" parent="1">
          <mxGeometry x="670" y="570" width="60" height="30" as="geometry" />
        </mxCell>
        <mxCell id="xsjcqdi1_I2oOMjYGqOI-107" value="" style="shape=curlyBracket;whiteSpace=wrap;html=1;rounded=1;labelPosition=left;verticalLabelPosition=middle;align=right;verticalAlign=middle;rotation=-90;" vertex="1" parent="1">
          <mxGeometry x="624.38" y="546.88" width="30" height="138.75" as="geometry" />
        </mxCell>
        <mxCell id="xsjcqdi1_I2oOMjYGqOI-108" value="multi-scale sequence" style="text;html=1;align=center;verticalAlign=middle;whiteSpace=wrap;rounded=0;" vertex="1" parent="1">
          <mxGeometry x="591.88" y="620" width="118.12" height="30" as="geometry" />
        </mxCell>
      </root>
    </mxGraphModel>
  </diagram>
</mxfile>
